<?xml version="1.0" encoding="UTF-8"?>
<svg id="OBJECT" xmlns="http://www.w3.org/2000/svg" viewBox="0 0 1566.75 1410.55">
  <defs>
    <style>
      .cls-1 {
        fill: #ff66a4;
      }

      .cls-2 {
        fill: #ff9ec9;
      }

      .cls-3 {
        fill: #732a6c;
      }

      .cls-4 {
        fill: #ffbd6b;
      }

      .cls-5 {
        fill: #fff;
      }

      .cls-6 {
        fill: #a54d8f;
      }

      .cls-7 {
        fill: #ff96c0;
      }

      .cls-8 {
        fill: #d1c5bf;
      }

      .cls-9 {
        fill: #ffcde5;
      }
    </style>
  </defs>
  <path class="cls-5" d="M783.15,1410.55c-.29,0-.58-.06-.84-.2l-16.08-7.87c-7.24-3.53-179.28-88.21-360.44-234.23-106.92-86.18-194.33-175.75-259.82-266.24C62.51,786.71,14.41,669.36,3.01,553.21c-14.8-150.74,25.26-283.24,115.85-383.16C215.35,63.62,366.59.08,523.42.08c98.04,0,190.39,25.58,260.22,72.04C853.47,25.6,945.58,0,1043.21,0c154.87,0,304.93,62.86,401.42,168.16,91.59,99.96,132.98,232.96,119.7,384.64-10.54,120.46-58.12,240.54-141.41,356.91-65.44,91.42-153.04,180.84-260.38,265.76-181.1,143.28-355,224.06-362.31,227.43l-16.27,7.48c-.26.12-.53.18-.8.18ZM523.42,3.93c-155.77,0-305.94,63.07-401.71,168.71C31.86,271.74-7.86,403.21,6.83,552.84c11.34,115.46,59.2,232.18,142.24,346.93,65.28,90.21,152.46,179.54,259.11,265.5,180.82,145.75,352.5,230.25,359.71,233.77h0l15.27,7.47,15.44-7.1c7.3-3.36,180.79-83.96,361.53-226.95,107.05-84.7,194.41-173.85,259.64-264.98,82.88-115.8,130.22-235.24,140.71-355.01,13.18-150.57-27.87-282.56-118.71-381.7C1346.02,66.24,1197.02,3.84,1043.21,3.84c-97.36,0-189.17,25.64-258.5,72.19-.65.44-1.5.44-2.14,0C713.24,29.54,621.21,3.93,523.42,3.93Z"/>
  <g>
    <path class="cls-2" d="M783.64,121.21C548.84-66.69-4.75,68.28,42.49,549.34c46.95,478.07,741.16,817.51,741.16,817.51,0,0,697.67-320.81,741.16-817.51C1566.96,67.81,1018.45-66.69,783.64,121.21Z"/>
    <path d="M783.64,1368.77c-.29,0-.58-.06-.84-.2-1.74-.85-175.8-86.61-353.33-229.71-104.31-84.08-189.4-171.21-252.92-258.98-79.48-109.82-125.23-220.97-135.97-330.36-10.26-104.53,7.05-198,51.47-277.82,39.06-70.19,99.61-128.93,175.1-169.87C434.94,10.84,656.64,18.19,783.64,118.75c61.28-48.52,146.45-77.15,240.02-80.63,93.9-3.49,190.4,18.53,271.63,62.02,75.98,40.68,137.2,99.44,177.05,169.91,45.3,80.12,63.6,174.15,54.38,279.46-9.95,113.64-55.2,227.44-134.5,338.23-63.38,88.55-148.54,175.4-253.1,258.13-177.97,140.8-352.91,221.93-354.66,222.73-.26.12-.53.18-.8.18ZM523.17,41.97c-86.34,0-176.12,20.91-254.19,63.24-74.85,40.59-134.87,98.81-173.57,168.36-44.03,79.12-61.19,171.84-51.01,275.57,10.67,108.69,56.17,219.2,135.23,328.45,63.31,87.49,148.16,174.37,252.19,258.23,170.95,137.81,338.67,222.34,351.85,228.89,13.28-6.22,181.79-86.35,353.12-221.91,104.27-82.5,189.16-169.08,252.32-257.33,78.88-110.21,123.89-223.36,133.77-336.3,9.15-104.52-8.98-197.8-53.89-277.23-39.48-69.84-100.18-128.07-175.51-168.41-80.63-43.18-176.4-65.03-269.67-61.57-93.37,3.48-178.23,32.15-238.96,80.75-.7.56-1.7.56-2.4,0-66.94-53.56-160.86-80.73-259.27-80.73Z"/>
  </g>
  <g>
    <path class="cls-1" d="M914.6,1065.47c-43.18-35.69-98.55,8.23-127.72,37.59-.96.97-1.63,1.63-1.96,1.93-.73.65-1.83.65-2.56,0-.33-.3-1-.96-1.96-1.93-21.41-21.55-56.94-50.94-91.4-50.94-12.49,0-24.84,3.86-36.32,13.35-23.63,19.53-34.51,42.27-32.33,67.59,4.37,50.67,62.35,110.33,163.29,168.03,100.93-57.7,158.91-117.36,163.28-168.03,2.19-25.32-8.69-48.06-32.33-67.59ZM678.26,1103.29c-15.09,10.41-31.8,12.36-37.32,4.36-5.52-8,2.24-22.93,17.33-33.34,15.09-10.41,31.8-12.36,37.32-4.36,5.52,8-2.24,22.93-17.33,33.34ZM921,1107.65c-5.52,8-22.23,6.05-37.32-4.36-15.09-10.41-22.85-25.34-17.33-33.34,5.52-8,22.23-6.05,37.32,4.36,15.09,10.41,22.85,25.34,17.33,33.34Z"/>
    <path d="M917.05,1062.5c-33.74-27.87-80.94-14.45-132.9,37.84-.18.18-.35.36-.51.51-.16-.16-.33-.33-.51-.51-51.96-52.29-99.16-65.73-132.9-37.84-24.67,20.38-36.01,44.23-33.71,70.89,4.55,52.75,61.74,111.92,165.4,171.15.17.19.38.36.61.49.22.13.47.21.74.23.14.04.28.06.42.06.4,0,.81-.14,1.16-.34.18-.11.34-.25.47-.41,103.68-59.23,160.88-118.41,165.44-171.17,2.3-26.65-9.04-50.5-33.71-70.89ZM946.93,1133.06c-4.37,50.67-62.35,110.33-163.28,168.03-100.93-57.7-158.91-117.36-163.29-168.03-2.18-25.32,8.69-48.06,32.33-67.59,11.48-9.49,23.83-13.35,36.32-13.35,34.46,0,69.99,29.39,91.4,50.94.96.97,1.63,1.63,1.96,1.93.73.65,1.83.65,2.56,0,.33-.3,1-.96,1.96-1.93,29.17-29.35,84.54-73.27,127.72-37.59,23.63,19.53,34.51,42.27,32.33,67.59Z"/>
    <path class="cls-6" d="M715.48,975.56c1.82,21.03,26.01,45.9,68.16,70.09,42.15-24.19,66.35-49.07,68.16-70.09.89-10.36-3.59-19.69-13.31-27.73-17.64-14.58-40.59,3.69-52.69,15.87-.43.44-.73.73-.88.86-.73.65-1.83.65-2.56,0-.15-.14-.45-.43-.88-.86-8.92-8.98-23.74-21.27-37.97-21.27-5.08,0-10.08,1.56-14.72,5.4-9.73,8.04-14.21,17.37-13.31,27.73Z"/>
    <path d="M782.24,1049.28c.11.1.23.19.36.27.2.12.44.2.67.24.13.03.26.04.39.04.38,0,.75-.11,1.08-.31.11-.07.22-.15.31-.24,44.22-25.29,68.62-50.66,70.58-73.39,1.01-11.69-3.93-22.13-14.7-31.02-14.69-12.14-35.02-6.61-57.3,15.56-22.27-22.17-42.6-27.69-57.3-15.56-10.76,8.89-15.71,19.33-14.7,31.02,1.96,22.73,26.37,48.11,70.59,73.39ZM743.51,942.44c14.23,0,29.05,12.29,37.97,21.27.43.43.73.73.88.86.73.65,1.83.65,2.56,0,.15-.14.45-.43.88-.86,12.11-12.18,35.05-30.46,52.69-15.87,9.73,8.04,14.21,17.37,13.31,27.73-1.82,21.03-26.01,45.9-68.16,70.09-42.15-24.19-66.35-49.07-68.16-70.09-.89-10.36,3.59-19.69,13.31-27.73,4.64-3.83,9.64-5.4,14.72-5.4Z"/>
    <path class="cls-3" d="M746.64,875.83c.98,11.32,14.1,24.8,37,38.02,22.9-13.22,36.02-26.69,37-38.02.47-5.45-1.91-10.39-7.09-14.66-9.27-7.66-21.59,2.2-28.11,8.76-.26.26-.44.44-.52.51-.73.65-1.83.65-2.56,0-.09-.08-.27-.26-.53-.52-4.84-4.86-12.86-11.54-20.47-11.54-2.65,0-5.24.81-7.64,2.79-5.17,4.27-7.56,9.21-7.09,14.66Z"/>
    <path d="M782.37,917.55c.08.07.17.13.26.18.2.12.43.2.66.24.12.02.24.03.36.03.35,0,.71-.1,1.03-.29.08-.05.17-.11.24-.17,24.76-14.18,38.44-28.48,39.55-41.38.59-6.79-2.26-12.83-8.47-17.96-8.41-6.95-19.87-4.06-32.36,8.1-12.49-12.17-23.96-15.05-32.36-8.1-6.21,5.13-9.06,11.17-8.47,17.96,1.11,12.9,14.79,27.21,39.56,41.39ZM781.84,869.92c.26.26.44.44.53.52.73.65,1.83.65,2.56,0,.09-.08.27-.26.52-.51,6.52-6.56,18.84-16.41,28.11-8.76,5.17,4.27,7.56,9.21,7.09,14.66-.98,11.32-14.11,24.8-37,38.02-22.9-13.22-36.03-26.69-37-38.02-.47-5.45,1.91-10.39,7.09-14.66,2.4-1.98,4.99-2.79,7.64-2.79,7.61,0,15.63,6.68,20.47,11.54Z"/>
    <path class="cls-7" d="M903.67,1074.32c-15.09-10.41-31.8-12.36-37.32-4.36-5.52,8,2.24,22.93,17.33,33.34,15.09,10.41,31.8,12.36,37.32,4.36,5.52-8-2.24-22.93-17.33-33.34Z"/>
    <ellipse class="cls-7" cx="668.27" cy="1088.8" rx="33.19" ry="17.6" transform="translate(-500.09 572.08) rotate(-34.6)"/>
  </g>
  <g>
    <path class="cls-5" d="M1356.85,220.64c-110.7-108.55-281.65-148.52-435.5-101.82-50.33,15.28-95.09,38.76-133.13,69.16,76.46,61.34,124.03,134.53,141.36,217.56,15.42,73.84,10.8,138.14-5.61,193.48,4.91-9.77,11.07-19,18.43-27.46,23.04-26.49,55.02-42.42,90.05-44.86,33.93-2.36,66.79,8.22,92.89,29.83,23.34,19.21,39.09,45.48,45.03,75.01.08.42.17.83.25,1.25.12.62.23,1.25.34,1.88.1.57.2,1.14.29,1.71.09.56.18,1.12.26,1.68.1.66.19,1.32.28,1.98.07.5.14,1.01.2,1.51.1.77.18,1.55.26,2.32.04.41.09.82.13,1.23.12,1.19.22,2.39.3,3.59,4.4,63.24-36.92,119.3-95.72,135.73-.06.02-.12.05-.18.06-.05.01-.1.02-.14.03-8.33,2.3-17,3.82-25.95,4.44-1.85.13-3.69.2-5.53.26-.31,0-.61,0-.92.02-5.08.37-10.1.58-15.04.58-47.06,0-87.47-16.92-118.56-50.05-.73-.77-.69-1.99.09-2.71.78-.73,1.99-.69,2.72.09,26.02,27.72,57.75,43.7,94.78,47.87-23.42-6.13-44.93-18.7-62.07-36.77-.11-.11-.19-.24-.27-.37-20.11-21.33-33.25-49.46-35.44-80.91-.85-12.25-.01-24.35,2.42-36.05-8.58,21.38-18.88,41.25-30.35,59.65,5.2,13.37,14.7,26.3,14.82,26.46.63.86.45,2.06-.4,2.69-.34.25-.75.38-1.14.38-.59,0-1.17-.27-1.55-.78-.48-.65-8.82-12.01-14.26-24.76-26.21,40.96-58.08,74.48-89.03,101,39.02,32.8,76.16,53.65,96.37,63.81,4.05-.16,8.44-2.7,10.59-11.51,3.1-12.68-1.5-29.76-18.49-49.55-6.85-6.54-13.86-12.32-19.6-17.06-3.49-2.88-6.5-5.37-8.67-7.37-.78-.72-.83-1.93-.11-2.71.72-.79,1.94-.83,2.72-.11,2.09,1.93,5.07,4.39,8.51,7.23,21.69,17.91,66.83,55.18,41.62,91.36,0,0,0,0-.01.01,0,0,0,0,0,0-.45.63-44.73,63.31-10.09,91.02,25.93,20.75,65.89-19.21,66.3-19.61.66-.67,1.71-.76,2.48-.22.77.54,1.03,1.57.62,2.41-.27.55-26.58,55.34.09,82.01,26.52,26.51,76.27-6.59,76.77-6.92.33-.22.70-.33,1.08-.33.47,0,.94.17,1.3.51.66.61.81,1.58.37,2.36-14.08,24.76-13.42,47.23,1.75,60.1,15.6,13.24,48.16,14.73,82.78-13.29,64.43-52.17,117.51-102.68,161.13-151.05-20.36,16.69-44.95,25.74-68.82,25.74-15.34,0-30.39-3.73-43.83-11.59-.9-.52-1.79-1.07-2.67-1.63-1.13-.72-2.24-1.47-3.33-2.24-.33-.23-.65-.48-.98-.72-.77-.56-1.53-1.12-2.27-1.7-.34-.27-.68-.54-1.01-.81-.73-.59-1.45-1.19-2.16-1.8-.3-.26-.6-.53-.9-.79-.75-.67-1.49-1.35-2.22-2.05-.23-.22-.47-.44-.7-.67-.84-.83-1.67-1.67-2.48-2.54-.1-.11-.2-.21-.3-.32-1.8-1.94-3.51-3.96-5.12-6.08-.03-.05-.06-.1-.09-.14-5.64-7.43-10.08-15.87-13.18-25.05,3.72,26.6,14.44,43.78,23.17,57.76.56.9.29,2.08-.61,2.65-.32.2-.67.29-1.02.29-.64,0-1.27-.32-1.63-.9-11.72-18.75-26.93-43.11-24.96-87.4-.93-23.47,6.03-47.84,20.04-68.95,33.16-49.98,95.96-67.89,140.01-39.91,19.28,12.25,32.66,31.97,37.68,55.54,5.34,25.12.81,52.56-12.41,76.76-.08.14-.15.28-.23.41-.77,1.39-1.56,2.78-2.39,4.15-.09.15-.18.29-.27.44-.06.1-.12.19-.18.29,123.82-148.26,159.09-274.5,163.33-363.75,5.39-113.32-36.83-217.4-122.08-301ZM901.71,896.29c-8.83,11.33-12.61,26.53-10.09,40.67.19,1.05-.51,2.05-1.56,2.23-.11.02-.23.03-.34.03-.91,0-1.73-.65-1.89-1.58-2.7-15.2,1.35-31.54,10.85-43.71.65-.83,1.86-.99,2.7-.33.84.65.99,1.86.33,2.7ZM967.78,967.67c-4,11.26-4.98,23.44-2.84,35.19.19,1.04-.5,2.05-1.55,2.24-.12.02-.23.03-.35.03-.91,0-1.72-.65-1.89-1.58-2.26-12.42-1.22-25.27,3-37.17.35-1,1.45-1.55,2.46-1.17,1,.35,1.52,1.45,1.17,2.45ZM1048.65,1036.48c-4.08,5.73-5.77,12.99-4.64,19.92.17,1.05-.54,2.03-1.59,2.2-.1.02-.21.03-.31.03-.93,0-1.74-.67-1.9-1.61-1.29-7.93.65-16.23,5.31-22.77.61-.86,1.81-1.07,2.68-.45.87.62,1.07,1.82.45,2.68ZM1105.92,902.36c-.4,1.55-.82,3.04-1.27,4.46-3.85,12.19-9.43,19.16-16.13,20.16-.97.15-1.94.22-2.9.22,0,0-.01,0-.02,0,0,0-.02,0-.02,0-.64,0-1.28-.04-1.91-.1,0,0,0,0,0,0-.65-.06-1.3-.17-1.94-.29,0,0-.01,0-.02,0-17.07-3.4-28.19-28.34-30.44-33.78-6.11-1.25-35.85-8.14-43.24-25.09-1.67-3.83-1.11-10.19,11.07-18.72,15.78-11.05,44.43-20.89,64.73-20.62.17-.04.36-.07.55-.06,3.64.08,6.84.51,9.63,1.25-8.88-8.73-17.22-9.49-17.32-9.5-1.06-.08-1.85-1-1.77-2.06.08-1.06,1.01-1.88,2.04-1.78.58.04,14.23,1.17,26.01,18.06,8.68,8.77,8.84,44.77,2.94,67.86ZM1168.63,955.54c.79-.7,2.01-.62,2.71.18.07.08,6.92,7.82,17.45,14.05.91.54,1.22,1.72.68,2.63-.36.61-1,.95-1.66.95-.33,0-.67-.09-.98-.27-11.09-6.55-18.1-14.49-18.39-14.83-.7-.80-.62-2.01.18-2.71ZM1141.97,518.35c-.38.39-.88.59-1.39.59-.48,0-.96-.18-1.33-.54-38.77-37.27-97.25-51.86-148.99-37.17-1.02.29-2.08-.3-2.37-1.32-.29-1.02.3-2.09,1.32-2.37,53.02-15.06,112.96-.11,152.7,38.1.76.74.79,1.95.05,2.72ZM1359.38,798.32c-.13.96-.96,1.66-1.9,1.66-.09,0-.18,0-.26-.02-1.05-.15-1.79-1.11-1.64-2.17,2.55-18.48-1.97-37.94-12.4-53.4-.59-.88-.36-2.07.52-2.67.88-.6,2.08-.36,2.67.52,10.96,16.23,15.7,36.67,13.02,56.07ZM1367.03,348.69c13.87-8.01,34.41,1.58,45.86,21.43,11.46,19.84,9.5,42.42-4.38,50.43-13.87,8.01-34.41-1.58-45.86-21.43-11.46-19.84-9.5-42.42,4.38-50.43ZM1356.27,330.6c-17.03,19.41-71.78-.79-122.28-45.11-50.5-44.32-77.63-95.98-60.6-115.39,17.03-19.41,71.78.79,122.28,45.11,50.5,44.32,77.63,95.98,60.6,115.39Z"/>
    <path d="M1359.54,217.9c-111.69-109.52-284.13-149.85-439.31-102.76-51.77,15.71-97.71,40.03-136.58,71.57-43.9-36.41-96.6-63.86-155.92-80.06-154.97-42.32-319.85,1.38-420.05,111.33-86.66,95.09-127.79,206.99-118.96,323.62,13.02,171.9,133.64,354.85,348.84,529.1,16.46,13.32,38.28,23.44,58.12,23.44,10.85,0,21.1-3.02,29.56-10.2,15.14-12.85,17.19-34.96,5.84-58.75,5.35,3.03,13.83,7.32,23.63,10.43,22.06,6.99,40.05,4.35,52.03-7.62,22.39-22.39,10.94-61.23,4.36-78.19,13.07,11.03,42.66,31.59,64.81,13.87,34.29-27.43-.38-82.98-8.02-94.31,11.05-4.89,62.26-28.82,115.76-74.98.49.42.97.83,1.46,1.25.54.47,1.09.94,1.63,1.4.02.02.04.03.06.04,52.35,44.39,101.78,67.5,112.62,72.28-7.63,11.33-42.3,66.88-8.02,94.31,22.15,17.71,51.74-2.84,64.81-13.87-6.59,16.95-18.04,55.79,4.35,78.19,11.98,11.98,29.97,14.61,52.03,7.62,9.8-3.11,18.28-7.4,23.63-10.43-11.35,23.79-9.3,45.9,5.84,58.75,8.46,7.18,18.71,10.2,29.56,10.2,19.84,0,41.66-10.11,58.12-23.44,281.04-227.55,347.11-424.07,353.04-548.86,5.44-114.45-37.17-219.54-123.23-303.93ZM1164.4,917.7c43.53,22.46,101.97,3.96,133.54-43.62,23.17-34.91,26.47-77.01,9.68-109.22,27.6,30.72,29.36,81.55,2.32,122.29-32.01,48.25-92.46,65.65-134.74,38.79-3.84-2.44-7.45-5.2-10.8-8.24ZM1212.58,822.71l-5.73-34.88c-.55-3.35.24-6.71,2.22-9.46,1.98-2.76,4.91-4.58,8.26-5.13,6.89-1.13,13.46,3.57,14.59,10.48l5.73,34.88c.08.5.36.95.78,1.25.41.3.92.42,1.43.33l34.88-5.73c3.34-.54,6.71.24,9.47,2.22,2.76,1.98,4.58,4.91,5.13,8.26,1.13,6.91-3.56,13.46-10.48,14.59l-34.88,5.73c-.50.08-.95.36-1.25.77-.3.42-.42.93-.33,1.43l5.73,34.88c.55,3.35-.24,6.71-2.22,9.47-1.98,2.76-4.91,4.58-8.26,5.12-3.35.54-6.71-.24-9.47-2.22-2.76-1.98-4.58-4.91-5.13-8.26l-5.73-34.88c-.15-.94-.97-1.61-1.89-1.61-.1,0-.21,0-.31.03l-34.88,5.73c-6.92,1.12-13.46-3.57-14.59-10.48-1.13-6.91,3.57-13.46,10.48-14.59l34.88-5.73c1.05-.17,1.76-1.16,1.58-2.21ZM1478.93,521.65c-4.24,89.25-39.51,215.49-163.33,363.75.06-.1.12-.19.18-.29.09-.15.18-.29.27-.44.83-1.37,1.62-2.76,2.39-4.15.08-.14.15-.28.23-.41,13.22-24.19,17.75-51.64,12.41-76.76-5.01-23.57-18.39-43.30-37.68-55.54-44.04-27.98-106.84-10.07-140.01,39.91-14,21.10-20.97,45.48-20.04,68.95-1.97,44.29,13.24,68.65,24.96,87.4.36.59.99.9,1.63.9.35,0,.7-.09,1.02-.29.9-.56,1.17-1.75.61-2.65-8.74-13.98-19.45-31.16-23.17-57.76,3.1,9.18,7.54,17.62,13.18,25.05.03.05.05.1.09.14,1.61,2.12,3.33,4.14,5.12,6.08.1.11.2.21.3.32.81.86,1.63,1.71,2.48,2.54.23.23.46.45.7.67.73.7,1.47,1.38,2.22,2.05.3.27.6.53.9.79.71.61,1.43,1.21,2.16,1.8.34.27.67.55,1.01.81.74.58,1.5,1.15,2.27,1.7.33.24.65.48.98.72,1.09.77,2.2,1.52,3.33,2.24.88.56,1.77,1.1,2.67,1.63,13.44,7.85,28.49,11.59,43.83,11.59,23.87,0,48.46-9.05,68.82-25.74-43.62,48.37-96.7,98.88-161.13,151.05-34.62,28.02-67.17,26.54-82.78,13.29-15.18-12.88-15.83-35.34-1.75-60.1.44-.78.29-1.75-.37-2.36-.36-.34-.83-.51-1.3-.51-.37,0-.75.11-1.08.33-.5.33-50.24,33.43-76.77,6.92-26.67-26.67-.36-81.47-.09-82.01.41-.85.15-1.87-.62-2.41-.77-.54-1.82-.45-2.48.22-.4.41-40.36,40.36-66.3,19.61-34.64-27.71,9.64-90.39,10.09-91.02,0,0,0,0,0,0,0,0,0,0,.01-.01,25.21-36.17-19.93-73.44-41.62-91.36-3.44-2.84-6.42-5.3-8.51-7.23-.78-.72-2-.68-2.72.11-.72.78-.67,1.99.11,2.71,2.17,2,5.18,4.49,8.67,7.37,5.74,4.74,12.74,10.52,19.6,17.06,16.99,19.8,21.6,36.88,18.49,49.55-2.16,8.81-6.55,11.35-10.59,11.51-20.21-10.16-57.35-31-96.37-63.81,30.95-26.52,62.82-60.04,89.03-101,5.44,12.74,13.78,24.1,14.26,24.76.38.51.96.78,1.55.78.4,0,.8-.12,1.14-.38.85-.63,1.03-1.84.4-2.69-.12-.16-9.62-13.10-14.82-26.46,11.47-18.4,21.77-38.27,30.35-59.65-2.43,11.7-3.27,23.8-2.42,36.05,2.19,31.45,15.34,59.58,35.44,80.91.08.13.16.26.27.37,17.14,18.07,38.65,30.64,62.07,36.77-37.02-4.17-68.75-20.15-94.78-47.87-.72-.78-1.94-.81-2.72-.09-.77.72-.81,1.94-.09,2.71,31.09,33.12,71.5,50.05,118.56,50.05,4.94,0,9.96-.21,15.04-.58.31,0,.61,0,.92-.02,1.84-.05,3.68-.13,5.53-.26,8.95-.62,17.62-2.14,25.95-4.44.05-.01.1-.02.14-.03.06-.01.12-.04.18-.06,58.81-16.43,100.12-72.49,95.72-135.73-.08-1.2-.19-2.4-.3-3.59-.04-.41-.09-.82-.13-1.23-.08-.78-.17-1.55-.26-2.32-.06-.5-.13-1.01-.2-1.51-.09-.66-.18-1.32-.28-1.98-.08-.56-.17-1.12-.26-1.68-.09-.57-.19-1.14-.29-1.71-.11-.63-.22-1.26-.34-1.88-.08-.42-.17-.83-.25-1.25-5.95-29.52-21.7-55.79-45.03-75.01-26.1-21.61-58.96-32.20-92.89-29.83-35.02,2.44-67,18.37-90.05,44.86-7.36,8.47-13.53,17.69-18.43,27.46,16.42-55.34,21.03-119.64,5.61-193.48-17.34-83.03-64.9-156.22-141.36-217.56,38.04-30.4,82.81-53.89,133.13-69.16,153.85-46.7,324.8-6.73,435.5,101.82,85.25,83.6,127.47,187.68,122.08,301ZM607.2,941.06c-.66-.66-1.71-.76-2.48-.22-.77.55-1.03,1.57-.62,2.41.27.55,26.6,55.32-.09,82.01-26.52,26.52-76.26-6.58-76.76-6.92-.74-.5-1.73-.42-2.38.18-.66.61-.81,1.58-.37,2.36,14.08,24.76,13.42,47.23-1.75,60.1-15.61,13.24-48.16,14.73-82.78-13.29-61.29-49.63-114.87-99.95-160.45-150.5,20.23,16.34,44.53,25.2,68.14,25.2,16.36,0,32.4-4.25,46.5-13.21,1.13-.72,2.23-1.46,3.32-2.23.34-.24.68-.5,1.02-.75.75-.55,1.49-1.10,2.22-1.67.36-.28.71-.57,1.06-.85.71-.57,1.41-1.16,2.1-1.75.32-.28.64-.56.96-.84.73-.65,1.44-1.31,2.15-1.99.25-.24.51-.48.76-.73.81-.8,1.61-1.62,2.39-2.45.13-.14.26-.27.38-.4,1.79-1.93,3.5-3.95,5.11-6.06.03-.04.06-.09.09-.14,5.64-7.44,10.08-15.88,13.19-25.06-3.72,26.61-14.44,43.79-23.18,57.76-.56.9-.29,2.08.61,2.65.32.2.67.29,1.02.29.64,0,1.27-.32,1.63-.9,11.72-18.75,26.94-43.11,24.96-87.41.93-23.47-6.04-47.83-20.04-68.93-33.16-49.98-95.97-67.88-140.01-39.91-19.28,12.25-32.66,31.97-37.68,55.54-5.34,25.12-.81,52.56,12.41,76.76.07.14.15.27.23.41.7,1.28,1.42,2.55,2.18,3.81-96.01-115.47-150.05-231.63-158.49-343.02-8.75-115.54,32.04-226.45,117.97-320.74,74.08-81.29,183.88-126,298.69-126,38.99,0,78.57,5.16,117.51,15.79,147.8,40.36,254.14,151.18,284.47,296.42,35.62,170.63-33.34,286.55-97.47,353.75-51,53.45-107.1,85.42-133.75,98.82-4.04-.16-8.43-2.7-10.59-11.51-3.1-12.68,1.51-29.76,18.5-49.56,6.85-6.54,13.85-12.32,19.59-17.05,3.49-2.88,6.5-5.37,8.67-7.37.78-.72.83-1.93.11-2.71-.72-.79-1.94-.83-2.72-.11-2.09,1.93-5.07,4.39-8.51,7.23-21.69,17.91-66.83,55.18-41.62,91.36,0,0,0,0,.01.01,0,0,0,0,0,0,.45.63,44.73,63.31,10.09,91.02-25.92,20.75-65.9-19.2-66.3-19.61ZM259.68,764.86c-16.79,32.21-13.49,74.31,9.68,109.22,31.57,47.58,90.01,66.09,133.54,43.62-3.35,3.05-6.95,5.8-10.79,8.24-42.29,26.86-102.73,9.45-134.74-38.79-27.04-40.75-25.27-91.58,2.32-122.3ZM356.29,824.92l34.88,5.73c6.91,1.14,11.61,7.68,10.48,14.59-1.14,6.91-7.7,11.59-14.59,10.48l-34.88-5.73c-.51-.09-1.02.03-1.43.33-.41.3-.69.75-.78,1.25l-5.73,34.88c-.55,3.35-2.37,6.28-5.13,8.26-2.76,1.98-6.12,2.76-9.46,2.22-3.35-.55-6.28-2.37-8.26-5.12-1.98-2.76-2.77-6.12-2.22-9.47l5.73-34.88c.08-.5-.04-1.02-.33-1.43-.3-.41-.75-.69-1.25-.77l-34.88-5.73c-6.91-1.14-11.61-7.69-10.48-14.59.55-3.35,2.37-6.28,5.13-8.26,2.18-1.57,4.75-2.38,7.38-2.38.69,0,1.39.06,2.09.17l34.88,5.73c1.04.17,2.04-.54,2.21-1.58l5.73-34.88c1.13-6.91,7.69-11.61,14.59-10.48,6.91,1.14,11.61,7.68,10.48,14.59l-5.73,34.88c-.17,1.05.54,2.03,1.58,2.21ZM1168.86,648.98c4.28,61.43-35.89,115.88-93.05,131.79-10.35,2.23-20.41,3.76-30.16,4.6-30.99,1.02-60.94-9.2-84.73-28.64,20.57,10.04,43.26,14.45,66.48,12.83,35.02-2.44,67-18.37,90.05-44.86,23.04-26.49,34.39-60.37,31.95-95.4-1.73-24.89-10.56-48.77-25.2-68.71,26.19,22.15,42.24,53.59,44.66,88.39ZM1008.84,629.91l-7.19-43.81c-1.47-8.95,4.61-17.42,13.56-18.89,4.34-.7,8.69.31,12.25,2.87,3.57,2.56,5.92,6.36,6.64,10.69l7.19,43.81c.17,1.05,1.17,1.78,2.21,1.58l43.81-7.19c8.94-1.45,17.42,4.61,18.89,13.56,1.47,8.95-4.62,17.42-13.56,18.89l-43.81,7.19c-1.05.17-1.76,1.16-1.58,2.21l7.19,43.81c.71,4.33-.31,8.69-2.87,12.25-2.56,3.57-6.36,5.92-10.69,6.63-4.34.71-8.68-.31-12.25-2.87-3.57-2.56-5.93-6.36-6.64-10.69l-7.2-43.81c-.15-.94-.97-1.61-1.89-1.61-.1,0-.21,0-.31.03l-43.8,7.19c-4.33.7-8.68-.31-12.25-2.87-3.57-2.56-5.93-6.36-6.64-10.69-.71-4.33.31-8.69,2.87-12.25,2.56-3.57,6.36-5.92,10.69-6.64l43.8-7.19c1.05-.17,1.76-1.16,1.58-2.21Z"/>
    <path class="cls-8" d="M1309.93,887.15c27.04-40.75,25.27-91.57-2.32-122.29,16.8,32.21,13.49,74.3-9.68,109.22-31.57,47.58-90.01,66.09-133.54,43.62,3.34,3.04,6.95,5.8,10.8,8.24,42.28,26.86,102.73,9.46,134.74-38.79Z"/>
    <path d="M1186.84,973.08c.31.18.64.27.98.27.66,0,1.3-.34,1.66-.95.54-.91.24-2.09-.68-2.63-10.53-6.22-17.38-13.97-17.45-14.05-.7-.8-1.92-.88-2.71-.18-.8.7-.88,1.91-.18,2.71.29.33,7.3,8.27,18.39,14.83Z"/>
    <path class="cls-8" d="M1124.2,560.59c14.64,19.94,23.47,43.82,25.2,68.71,2.44,35.02-8.91,68.9-31.95,95.4-23.04,26.49-55.02,42.42-90.05,44.86-23.22,1.62-45.91-2.8-66.48-12.83,23.79,19.44,53.74,29.66,84.73,28.64,9.76-.84,19.81-2.37,30.16-4.6,57.15-15.9,97.32-70.36,93.05-131.79-2.42-34.8-18.47-66.24-44.66-88.39Z"/>
    <path class="cls-8" d="M1100.14,837.09c-.66-.63-1.43-1.2-2.3-1.7,2.15,6.46,6.68,23.5,1.83,41.4-.23.86-1.01,1.42-1.85,1.42-.17,0-.34-.02-.51-.07-1.02-.28-1.63-1.33-1.35-2.36,5.68-20.97-2.58-41.43-2.66-41.64-.09-.21-.12-.42-.13-.63-1.54-.41-3.25-.72-5.13-.91,6.22,12.77,6.3,45.85-.53,68.09-3.04,9.89-7.19,16.46-12.14,19.3,4.19,2.74,8.42,3.81,12.58,3.2,5.07-.76,9.7-6.98,13.03-17.52,7.8-24.66,6.15-61.92-.84-68.58Z"/>
    <path d="M1076.97,816.45c-1.03-.11-1.97.72-2.04,1.78-.08,1.05.72,1.97,1.77,2.06.1,0,8.44.77,17.32,9.5-2.8-.74-6-1.17-9.63-1.25-.19,0-.38.02-.55.06-20.3-.27-48.95,9.57-64.73,20.62-12.17,8.52-12.74,14.88-11.07,18.72,7.39,16.95,37.13,23.84,43.24,25.09,2.24,5.45,13.37,30.38,30.44,33.78,0,0,.01,0,.02,0,.64.13,1.28.23,1.94.29,0,0,0,0,0,0,.63.06,1.27.1,1.91.1,0,0,.02,0,.02,0,0,0,.01,0,.02,0,.97,0,1.93-.07,2.9-.22,6.7-.99,12.27-7.97,16.13-20.16.45-1.42.87-2.91,1.27-4.46,5.89-23.09,5.74-59.09-2.94-67.86-11.78-16.89-25.43-18.02-26.01-18.06ZM1087.96,923.18c-4.16.61-8.39-.45-12.58-3.2,4.95-2.84,9.1-9.41,12.14-19.3,6.83-22.24,6.75-55.32.53-68.09,1.88.19,3.59.5,5.13.91.01.21.05.42.13.63.08.21,8.34,20.66,2.66,41.64-.28,1.02.33,2.08,1.35,2.36.17.05.34.07.51.07.85,0,1.62-.56,1.85-1.42,4.85-17.9.32-34.94-1.83-41.4.87.51,1.64,1.07,2.3,1.7,7,6.65,8.64,43.92.84,68.58-3.33,10.54-7.96,16.76-13.03,17.52Z"/>
    <path d="M901.38,893.59c-.84-.66-2.05-.5-2.7.33-9.49,12.17-13.55,28.51-10.85,43.71.17.93.98,1.58,1.89,1.58.11,0,.23-.01.34-.03,1.05-.18,1.74-1.18,1.56-2.23-2.52-14.14,1.26-29.34,10.09-40.67.65-.84.5-2.05-.33-2.7Z"/>
    <path d="M966.61,965.21c-1-.38-2.1.17-2.46,1.17-4.23,11.89-5.26,24.75-3,37.17.17.93.98,1.58,1.89,1.58.11,0,.23-.01.35-.03,1.05-.19,1.74-1.19,1.55-2.24-2.14-11.76-1.16-23.93,2.84-35.19.35-1-.17-2.1-1.17-2.45Z"/>
    <path d="M1048.2,1033.8c-.87-.62-2.07-.41-2.68.45-4.66,6.54-6.6,14.84-5.31,22.77.15.94.97,1.61,1.9,1.61.1,0,.21,0,.31-.03,1.05-.17,1.76-1.16,1.59-2.2-1.13-6.94.56-14.2,4.64-19.92.62-.86.41-2.06-.45-2.68Z"/>
    <path d="M989.21,477.53c-1.02.29-1.61,1.35-1.32,2.37.29,1.02,1.36,1.62,2.37,1.32,51.74-14.69,110.22-.1,148.99,37.17.37.36.85.54,1.33.54.5,0,1.01-.2,1.39-.59.74-.77.71-1.98-.05-2.72-39.74-38.21-99.68-53.16-152.7-38.1Z"/>
    <path d="M1343.69,741.73c-.88.59-1.11,1.79-.52,2.67,10.43,15.46,14.95,34.92,12.4,53.4-.15,1.05.59,2.02,1.64,2.17.09.01.18.02.26.02.95,0,1.77-.7,1.9-1.66,2.68-19.4-2.07-39.84-13.02-56.07-.59-.88-1.79-1.12-2.67-.52Z"/>
    <path class="cls-4" d="M1007.25,632.12l-43.8,7.19c-4.33.71-8.13,3.07-10.69,6.64-2.56,3.57-3.58,7.92-2.87,12.25.71,4.33,3.07,8.13,6.64,10.69,3.57,2.56,7.93,3.57,12.25,2.87l43.8-7.19c.1-.02.21-.03.31-.03.93,0,1.74.67,1.89,1.61l7.2,43.81c.71,4.33,3.07,8.13,6.64,10.69,3.57,2.56,7.92,3.57,12.25,2.87,4.33-.71,8.13-3.07,10.69-6.63,2.56-3.57,3.58-7.92,2.87-12.25l-7.19-43.81c-.17-1.05.54-2.03,1.58-2.21l43.81-7.19c8.95-1.47,15.03-9.95,13.56-18.89-1.47-8.95-9.95-15.02-18.89-13.56l-43.81,7.19c-1.04.19-2.03-.54-2.21-1.58l-7.19-43.81c-.71-4.33-3.07-8.13-6.64-10.69-3.57-2.56-7.91-3.57-12.25-2.87-8.95,1.47-15.03,9.95-13.56,18.89l7.19,43.81c.17,1.05-.54,2.03-1.58,2.21Z"/>
    <path class="cls-4" d="M1211,824.92l-34.88,5.73c-6.91,1.14-11.61,7.69-10.48,14.59,1.14,6.91,7.68,11.6,14.59,10.48l34.88-5.73c.11-.02.21-.03.31-.03.93,0,1.74.67,1.89,1.61l5.73,34.88c.55,3.35,2.37,6.28,5.13,8.26,2.76,1.98,6.11,2.76,9.47,2.22,3.35-.55,6.28-2.37,8.26-5.12,1.98-2.76,2.77-6.12,2.22-9.47l-5.73-34.88c-.08-.5.04-1.02.33-1.43.3-.41.75-.69,1.25-.77l34.88-5.73c6.91-1.14,11.61-7.68,10.48-14.59-.55-3.35-2.37-6.28-5.13-8.26-2.76-1.98-6.13-2.76-9.47-2.22l-34.88,5.73c-.51.09-1.02-.04-1.43-.33-.41-.3-.69-.75-.78-1.25l-5.73-34.88c-1.14-6.91-7.7-11.61-14.59-10.48-3.35.55-6.28,2.37-8.26,5.13-1.98,2.76-2.77,6.12-2.22,9.46l5.73,34.88c.17,1.05-.54,2.03-1.58,2.21Z"/>
    <path class="cls-5" d="M663.41,869.65s0,0,0,0c0,0,0,0-.01-.01-25.21-36.17,19.93-73.44,41.62-91.36,3.44-2.84,6.42-5.3,8.51-7.23.78-.72,2-.68,2.72.11.72.78.67,1.99-.11,2.71-2.17,2-5.18,4.49-8.67,7.37-5.73,4.73-12.73,10.52-19.59,17.05-16.99,19.8-21.6,36.88-18.5,49.56,2.16,8.81,6.54,11.34,10.59,11.51,26.65-13.4,82.75-45.38,133.75-98.82,64.13-67.2,133.09-183.13,97.47-353.75-30.33-145.25-136.67-256.06-284.47-296.42-38.93-10.63-78.52-15.79-117.51-15.79-114.81,0-224.61,44.71-298.69,126-85.93,94.29-126.72,205.2-117.97,320.74,8.43,111.39,62.47,227.55,158.49,343.02-.75-1.26-1.47-2.53-2.18-3.81-.08-.14-.15-.27-.23-.41-13.22-24.19-17.75-51.64-12.41-76.76,5.01-23.57,18.39-43.3,37.68-55.54,44.04-27.97,106.84-10.07,140.01,39.91,14,21.1,20.97,45.47,20.04,68.93,1.98,44.3-13.24,68.66-24.96,87.41-.36.59-.99.9-1.63.9-.35,0-.7-.09-1.02-.29-.9-.56-1.17-1.75-.61-2.65,8.74-13.98,19.46-31.16,23.18-57.76-3.1,9.18-7.55,17.63-13.19,25.06-.03.05-.05.09-.09.14-1.61,2.11-3.32,4.13-5.11,6.06-.13.14-.26.27-.38.4-.78.83-1.58,1.65-2.39,2.45-.25.25-.51.49-.76.73-.71.68-1.42,1.34-2.15,1.99-.32.28-.64.56-.96.84-.69.6-1.39,1.18-2.1,1.75-.35.29-.7.57-1.06.85-.73.57-1.47,1.12-2.22,1.67-.34.25-.67.5-1.02.75-1.09.77-2.19,1.51-3.32,2.23-14.1,8.96-30.14,13.21-46.5,13.21-23.61,0-47.91-8.86-68.14-25.2,45.58,50.55,99.16,100.88,160.45,150.5,34.62,28.02,67.17,26.53,82.78,13.29,15.18-12.88,15.83-35.34,1.75-60.1-.44-.78-.29-1.75.37-2.36.65-.6,1.64-.68,2.38-.18.5.34,50.24,33.44,76.76,6.92,26.69-26.69.36-81.46.09-82.01-.41-.84-.15-1.87.62-2.41.77-.54,1.82-.45,2.48.22.4.41,40.37,40.37,66.3,19.61,34.64-27.71-9.64-90.39-10.09-91.02ZM398.84,958.25c-.29.33-7.3,8.27-18.39,14.83-.31.18-.64.27-.98.27-.66,0-1.3-.34-1.66-.95-.54-.91-.24-2.09.68-2.63,10.53-6.22,17.38-13.97,17.45-14.05.7-.8,1.91-.88,2.71-.18.8.7.88,1.91.18,2.71ZM673.05,719.31c-.38.51-.96.78-1.55.78-.4,0-.8-.12-1.14-.38-.85-.63-1.03-1.84-.4-2.69.16-.21,15.7-21.37,17.88-37.56.14-1.05,1.11-1.83,2.16-1.64,1.05.14,1.79,1.11,1.65,2.16-2.32,17.16-17.94,38.43-18.6,39.33ZM799.82,268.94c.81-.69,2.03-.59,2.71.22,54.15,63.9,82.95,148.53,79,232.2-.05,1.03-.9,1.83-1.92,1.83-.03,0-.06,0-.09,0-1.06-.05-1.88-.95-1.83-2.01,3.9-82.71-24.56-166.37-78.09-229.53-.69-.81-.59-2.02.22-2.71ZM425.38,515.63c39.74-38.21,99.67-53.16,152.7-38.1,1.02.29,1.61,1.35,1.32,2.37-.29,1.02-1.36,1.61-2.37,1.32-51.74-14.69-110.22-.1-148.99,37.17-.37.36-.85.54-1.33.54-.5,0-1.01-.2-1.39-.59-.74-.77-.71-1.98.05-2.72ZM156.75,420.55c-13.87-8.01-15.83-30.59-4.38-50.43,11.46-19.84,31.99-29.44,45.86-21.43,13.87,8.01,15.83,30.59,4.38,50.43-11.46,19.84-31.99,29.44-45.86,21.43ZM224.12,744.4c-10.43,15.46-14.95,34.92-12.4,53.4.15,1.05-.59,2.02-1.64,2.17-.09.01-.18.02-.26.02-.95,0-1.77-.7-1.9-1.66-2.68-19.4,2.07-39.84,13.02-56.07.6-.88,1.79-1.12,2.67-.52.88.59,1.11,1.79.52,2.67ZM331.28,285.48c-50.5,44.32-105.25,64.52-122.28,45.11-17.03-19.41,10.1-71.07,60.6-115.39,50.5-44.32,105.25-64.52,122.28-45.11,17.03,19.41-10.1,71.07-60.6,115.39ZM527.08,1057.02c-.15.94-.97,1.61-1.9,1.61-.1,0-.21,0-.31-.03-1.05-.17-1.76-1.16-1.59-2.2,1.13-6.94-.56-14.2-4.64-19.92-.62-.86-.41-2.06.45-2.68.87-.61,2.06-.41,2.68.45,4.66,6.54,6.6,14.84,5.31,22.77ZM559.25,867.93c-7.39,16.95-37.13,23.84-43.24,25.09-2.24,5.44-13.36,30.35-30.4,33.78-.02,0-.04.01-.06.01-.63.12-1.26.22-1.9.29-.01,0-.02,0-.04,0-.63.06-1.26.1-1.91.1,0,0-.02,0-.02,0,0,0-.01,0-.02,0-.96,0-1.93-.07-2.9-.22-6.7-.99-12.27-7.97-16.13-20.16-.78-2.46-1.47-5.13-2.08-7.95-5.04-23.07-4.5-56.04,3.76-64.38,11.78-16.89,25.43-18.02,26.01-18.06,1.07-.05,1.98.73,2.05,1.79.07,1.06-.73,1.97-1.79,2.05-.09,0-8.43.77-17.31,9.5,2.8-.74,6-1.17,9.64-1.25.18,0,.36.01.53.06,20.3-.28,48.96,9.57,64.75,20.62,12.17,8.52,12.74,14.88,11.07,18.71ZM606.13,1003.55c-.17.93-.98,1.58-1.89,1.58-.11,0-.23-.01-.35-.03-1.05-.19-1.74-1.19-1.55-2.24,2.14-11.76,1.16-23.93-2.85-35.19-.35-1,.17-2.1,1.17-2.45.99-.38,2.1.17,2.46,1.17,4.23,11.89,5.27,24.75,3,37.17ZM538.09,789.81c-4.95,0-9.97-.21-15.06-.58-.14,0-.27,0-.41,0-2-.05-4.01-.12-6.02-.26-8.94-.62-17.62-2.13-25.95-4.44-.05-.01-.1-.02-.15-.03-.07-.02-.13-.04-.2-.07-58.8-16.44-100.1-72.49-95.7-135.72.08-1.2.19-2.4.3-3.59.04-.41.09-.82.13-1.22.08-.78.17-1.56.26-2.33.06-.5.13-1,.2-1.5.09-.67.18-1.34.29-2.01.08-.55.17-1.11.26-1.66.1-.59.2-1.17.3-1.75.11-.61.22-1.23.33-1.84.09-.45.18-.89.27-1.33,6.01-29.77,22.01-56.23,45.69-75.48,26-21.24,58.59-31.62,92.22-29.29,35.02,2.44,67,18.37,90.05,44.86,23.04,26.49,34.39,60.37,31.95,95.39-2.19,31.45-15.34,59.58-35.44,80.91-.07.13-.16.26-.27.37-17.14,18.07-38.65,30.64-62.08,36.77,37.02-4.16,68.76-20.14,94.79-47.87.73-.78,1.94-.82,2.72-.09.77.72.81,1.94.09,2.71-31.09,33.12-71.51,50.05-118.56,50.05ZM665.91,893.59c.84-.66,2.04-.5,2.7.33,9.49,12.17,13.55,28.51,10.85,43.71-.17.93-.98,1.58-1.89,1.58-.11,0-.23-.01-.34-.03-1.05-.18-1.74-1.18-1.56-2.23,2.51-14.14-1.26-29.34-10.09-40.67-.65-.84-.51-2.05.33-2.7Z"/>
    <path class="cls-8" d="M392.1,925.94c3.84-2.44,7.45-5.2,10.79-8.24-43.53,22.46-101.96,3.96-133.54-43.62-23.17-34.91-26.47-77.01-9.68-109.22-27.59,30.72-29.36,81.55-2.32,122.3,32.01,48.24,92.45,65.65,134.74,38.79Z"/>
    <path d="M395.95,955.72c-.07.08-6.92,7.82-17.45,14.05-.91.54-1.22,1.72-.68,2.63.36.61,1,.95,1.66.95.33,0,.67-.09.98-.27,11.09-6.55,18.1-14.49,18.39-14.83.7-.8.62-2.01-.18-2.71-.8-.7-2.01-.62-2.71.18Z"/>
    <path class="cls-8" d="M521.62,785.36c31,1.03,60.95-9.2,84.75-28.65-20.57,10.04-43.26,14.46-66.48,12.84-72.3-5.03-127.03-67.95-122-140.25,1.73-24.88,10.56-48.77,25.2-68.71-26.19,22.15-42.24,53.59-44.66,88.39-4.28,61.43,35.9,115.89,93.05,131.79,10.34,2.22,20.39,3.75,30.14,4.59Z"/>
    <path d="M656.56,737.05c-.78-.73-1.99-.69-2.72.09-26.03,27.73-57.76,43.71-94.79,47.87,23.43-6.13,44.94-18.7,62.08-36.77.11-.11.19-.24.27-.37,20.11-21.33,33.25-49.46,35.44-80.91,2.44-35.02-8.91-68.9-31.95-95.39-23.04-26.49-55.02-42.42-90.05-44.86-33.63-2.33-66.22,8.05-92.22,29.29-23.68,19.25-39.68,45.71-45.69,75.48-.09.44-.18.89-.27,1.33-.12.61-.22,1.22-.33,1.84-.1.58-.2,1.17-.3,1.75-.09.55-.18,1.1-.26,1.66-.1.67-.19,1.34-.29,2.01-.07.5-.13,1-.2,1.5-.1.77-.18,1.55-.26,2.33-.04.41-.09.81-.13,1.22-.12,1.19-.22,2.39-.3,3.59-4.4,63.23,36.91,119.28,95.7,135.72.07.02.13.05.2.07.05.01.1.02.15.03,8.33,2.3,17,3.81,25.95,4.44,2.01.14,4.02.22,6.02.26.14,0,.27,0,.41,0,5.09.37,10.11.58,15.06.58,47.05,0,87.47-16.92,118.56-50.05.73-.77.69-1.99-.09-2.71ZM558.79,631.34c.3.41.75.69,1.25.77l43.81,7.19c8.95,1.47,15.03,9.95,13.56,18.89-.71,4.33-3.07,8.13-6.64,10.69-3.57,2.56-7.93,3.56-12.25,2.87l-43.81-7.19c-1.06-.21-2.04.54-2.21,1.58l-7.19,43.81c-.71,4.33-3.07,8.13-6.64,10.69-3.57,2.56-7.93,3.57-12.25,2.87-4.33-.71-8.13-3.07-10.69-6.63-2.56-3.57-3.58-7.92-2.87-12.25l7.2-43.81c.08-.5-.04-1.02-.33-1.43-.3-.41-.75-.69-1.25-.77l-43.81-7.19c-8.95-1.47-15.03-9.95-13.56-18.89,1.32-8.05,8.31-13.78,16.22-13.78.88,0,1.78.07,2.67.22l43.81,7.19c1.03.18,2.03-.54,2.21-1.58l7.19-43.81c.71-4.33,3.07-8.13,6.64-10.69,3.57-2.56,7.92-3.57,12.25-2.87,8.95,1.47,15.03,9.95,13.56,18.89l-7.2,43.81c-.08.5.04,1.02.33,1.43ZM398.43,648.98c2.42-34.8,18.47-66.24,44.66-88.39-14.64,19.94-23.47,43.83-25.2,68.71-5.03,72.3,49.7,135.22,122,140.25,23.22,1.62,45.92-2.8,66.48-12.84-23.8,19.44-53.75,29.67-84.75,28.65-9.75-.84-19.8-2.37-30.14-4.59-57.15-15.9-97.33-70.35-93.05-131.79Z"/>
    <path d="M691.65,679.98c.14-1.06-.6-2.02-1.65-2.16-1.05-.19-2.02.6-2.16,1.64-2.18,16.19-17.72,37.34-17.88,37.56-.63.86-.45,2.06.4,2.69.34.25.75.38,1.14.38.59,0,1.17-.27,1.55-.78.66-.9,16.28-22.16,18.6-39.33Z"/>
    <path d="M548.19,849.22c-15.79-11.06-44.45-20.9-64.75-20.62-.17-.04-.35-.07-.53-.06-3.64.08-6.84.51-9.64,1.25,8.88-8.73,17.22-9.49,17.31-9.5,1.06-.07,1.86-.99,1.79-2.05-.07-1.06-.98-1.84-2.05-1.79-.58.04-14.23,1.17-26.01,18.06-8.25,8.34-8.79,41.3-3.76,64.38.61,2.81,1.31,5.49,2.08,7.95,3.85,12.19,9.43,19.16,16.13,20.16.97.15,1.94.22,2.9.22,0,0,.01,0,.02,0,0,0,.02,0,.02,0,.64,0,1.28-.04,1.91-.1.01,0,.02,0,.04,0,.64-.06,1.27-.16,1.9-.29.02,0,.04-.01.06-.01,17.05-3.43,28.16-28.33,30.4-33.78,6.11-1.25,35.85-8.14,43.24-25.09,1.67-3.83,1.11-10.19-11.07-18.71ZM479.33,923.18c-5.07-.76-9.7-6.98-13.03-17.52-7.8-24.66-6.15-61.92.84-68.58.66-.63,1.43-1.2,2.3-1.7-2.15,6.46-6.68,23.5-1.83,41.4.23.86,1.01,1.42,1.85,1.42.17,0,.34-.02.5-.07,1.02-.28,1.63-1.33,1.35-2.36-5.68-20.97,2.57-41.43,2.66-41.64.09-.21.12-.42.13-.63,1.55-.41,3.25-.72,5.13-.91-6.22,12.77-6.3,45.85.53,68.09,3.04,9.89,7.19,16.46,12.14,19.3-4.19,2.74-8.41,3.81-12.58,3.2Z"/>
    <path class="cls-8" d="M479.78,900.69c-6.83-22.24-6.75-55.32-.53-68.09-1.88.19-3.59.5-5.13.91-.01.21-.05.42-.13.63-.08.21-8.34,20.66-2.66,41.64.28,1.02-.33,2.08-1.35,2.36-.17.05-.34.07-.5.07-.85,0-1.62-.56-1.85-1.42-4.85-17.9-.32-34.94,1.83-41.4-.87.51-1.64,1.07-2.3,1.7-6.99,6.65-8.64,43.92-.84,68.58,3.33,10.54,7.96,16.76,13.03,17.52,4.17.62,8.39-.45,12.58-3.2-4.95-2.84-9.1-9.41-12.14-19.3Z"/>
    <path d="M675.67,936.95c-.19,1.05.51,2.05,1.56,2.23.11.02.23.03.34.03.91,0,1.73-.65,1.89-1.58,2.7-15.2-1.35-31.54-10.85-43.71-.65-.83-1.86-.99-2.7-.33-.84.65-.99,1.86-.33,2.7,8.83,11.32,12.61,26.53,10.09,40.67Z"/>
    <path d="M600.67,965.21c-1,.35-1.52,1.45-1.17,2.45,4,11.26,4.99,23.44,2.85,35.19-.19,1.04.5,2.05,1.55,2.24.12.02.23.03.35.03.91,0,1.72-.65,1.89-1.58,2.26-12.42,1.22-25.27-3-37.17-.35-1-1.46-1.54-2.46-1.17Z"/>
    <path d="M519.09,1033.8c-.87.62-1.07,1.82-.45,2.68,4.08,5.73,5.77,12.99,4.64,19.92-.17,1.05.54,2.03,1.59,2.2.1.02.21.03.31.03.93,0,1.74-.67,1.9-1.61,1.29-7.93-.65-16.23-5.31-22.77-.62-.86-1.81-1.06-2.68-.45Z"/>
    <path d="M426.71,518.94c.48,0,.96-.18,1.33-.54,38.77-37.27,97.25-51.87,148.99-37.17,1.02.29,2.08-.3,2.37-1.32.29-1.02-.3-2.09-1.32-2.37-53.03-15.06-112.97-.11-152.7,38.1-.76.74-.79,1.95-.05,2.72.38.39.88.59,1.39.59Z"/>
    <path d="M223.6,741.73c-.88-.6-2.07-.36-2.67.52-10.96,16.23-15.7,36.67-13.02,56.07.13.96.96,1.66,1.9,1.66.09,0,.18,0,.26-.02,1.05-.15,1.79-1.11,1.64-2.17-2.55-18.48,1.97-37.94,12.4-53.4.59-.88.36-2.07-.52-2.67Z"/>
    <path d="M877.69,501.18c-.05,1.06.77,1.96,1.83,2.01.03,0,.06,0,.09,0,1.02,0,1.87-.8,1.92-1.83,3.95-83.66-24.85-168.3-79-232.2-.68-.81-1.9-.91-2.71-.22-.81.69-.91,1.9-.22,2.71,53.53,63.17,81.99,146.83,78.09,229.53Z"/>
    <path class="cls-2" d="M565.65,586.1c1.47-8.95-4.62-17.42-13.56-18.89-4.33-.71-8.69.31-12.25,2.87-3.57,2.56-5.93,6.36-6.64,10.69l-7.19,43.81c-.17,1.05-1.18,1.76-2.21,1.58l-43.81-7.19c-.90-.15-1.79-.22-2.67-.22-7.9,0-14.9,5.73-16.22,13.78-1.47,8.95,4.61,17.42,13.56,18.89l43.81,7.19c.5.08.95.36,1.25.77.3.42.42.93.33,1.43l-7.2,43.81c-.71,4.33.31,8.69,2.87,12.25,2.56,3.57,6.36,5.92,10.69,6.63,4.33.7,8.68-.31,12.25-2.87,3.57-2.56,5.92-6.36,6.64-10.69l7.19-43.81c.17-1.05,1.15-1.79,2.21-1.58l43.81,7.19c4.32.69,8.69-.31,12.25-2.87,3.57-2.56,5.92-6.36,6.64-10.69,1.47-8.95-4.62-17.42-13.56-18.89l-43.81-7.19c-.5-.08-.95-.36-1.25-.77-.3-.42-.42-.93-.33-1.43l7.2-43.81Z"/>
    <path class="cls-2" d="M360.43,787.83c1.13-6.91-3.56-13.46-10.48-14.59-6.91-1.13-13.46,3.57-14.59,10.48l-5.73,34.88c-.17,1.05-1.16,1.76-2.21,1.58l-34.88-5.73c-.7-.11-1.39-.17-2.09-.17-2.63,0-5.2.82-7.38,2.38-2.76,1.98-4.58,4.91-5.13,8.26-1.13,6.91,3.57,13.46,10.48,14.59l34.88,5.73c.5.08.95.36,1.25.77.3.42.42.93.33,1.43l-5.73,34.88c-.55,3.35.24,6.71,2.22,9.47,1.98,2.76,4.91,4.58,8.26,5.12,3.34.54,6.71-.24,9.46-2.22,2.76-1.98,4.58-4.91,5.13-8.26l5.73-34.88c.08-.5.36-.95.78-1.25.41-.3.93-.42,1.43-.33l34.88,5.73c6.89,1.11,13.46-3.57,14.59-10.48,1.13-6.91-3.57-13.46-10.48-14.59l-34.88-5.73c-1.05-.17-1.76-1.16-1.58-2.21l5.73-34.88Z"/>
    <ellipse class="cls-9" cx="300.44" cy="250.34" rx="121.66" ry="46.75" transform="translate(-90.5 260.37) rotate(-41.27)"/>
    <ellipse class="cls-9" cx="177.49" cy="384.62" rx="41.49" ry="29.01" transform="translate(-244.34 346.03) rotate(-60)"/>
    <ellipse class="cls-9" cx="1264.83" cy="250.34" rx="46.75" ry="121.66" transform="translate(242.35 1035.83) rotate(-48.73)"/>
    <ellipse class="cls-9" cx="1387.77" cy="384.62" rx="29.01" ry="41.49" transform="translate(-6.38 745.42) rotate(-30)"/>
  </g>
  <path class="cls-5" d="M1013.19,1124.27l17.62,3.59c2.71.55,2.71,4.42,0,4.97l-17.62,3.59-3.59,17.61c-.55,2.71-4.42,2.71-4.97,0l-3.59-17.61-17.61-3.59c-2.71-.55-2.71-4.42,0-4.97l17.61-3.59,3.59-17.62c.55-2.71,4.42-2.71,4.97,0l3.59,17.62Z"/>
  <path class="cls-5" d="M569.27,1144.55l17.62,3.59c2.71.55,2.71,4.42,0,4.97l-17.62,3.59-3.59,17.62c-.55,2.71-4.42,2.71-4.97,0l-3.59-17.62-17.62-3.59c-2.71-.55-2.71-4.42,0-4.97l17.62-3.59,3.59-17.62c.55-2.71,4.42-2.71,4.97,0l3.59,17.62Z"/>
  <path class="cls-5" d="M678.99,1004.2l12.08,2.46c1.86.38,1.86,3.03,0,3.41l-12.08,2.46-2.46,12.08c-.38,1.86-3.03,1.86-3.41,0l-2.46-12.08-12.08-2.46c-1.86-.38-1.86-3.03,0-3.41l12.08-2.46,2.46-12.08c.38-1.86,3.03-1.86,3.41,0l2.46,12.08Z"/>
  <path class="cls-5" d="M847.71,905.12l9.8,2c1.51.31,1.51,2.46,0,2.77l-9.8,2-2,9.8c-.31,1.51-2.46,1.51-2.77,0l-2-9.8-9.8-2c-1.51-.31-1.51-2.46,0-2.77l9.8-2,2-9.8c.31-1.51,2.46-1.51,2.77,0l2,9.8Z"/>
</svg>